<?xml version="1.0" encoding="UTF-8" standalone="no"?>
<svg
   xmlns:dc="http://purl.org/dc/elements/1.1/"
   xmlns:cc="http://creativecommons.org/ns#"
   xmlns:rdf="http://www.w3.org/1999/02/22-rdf-syntax-ns#"
   xmlns:svg="http://www.w3.org/2000/svg"
   xmlns="http://www.w3.org/2000/svg"
   xmlns:sodipodi="http://sodipodi.sourceforge.net/DTD/sodipodi-0.dtd"
   xmlns:inkscape="http://www.inkscape.org/namespaces/inkscape"
   inkscape:version="1.0 (4035a4fb49, 2020-05-01)"
   height="89.999207"
   width="66.390137"
   sodipodi:docname="default-monochrome-white - Copy.svg"
   id="svg8"
   version="1.1"
   class="iconLeft"
   viewBox="0 0 66.390137 89.999207"
   data-v-423bf9ae="">
  <metadata
     id="metadata14">
    <rdf:RDF>
      <cc:Work
         rdf:about="">
        <dc:format>image/svg+xml</dc:format>
        <dc:type
           rdf:resource="http://purl.org/dc/dcmitype/StillImage" />
      </cc:Work>
    </rdf:RDF>
  </metadata>
  <defs
     id="defs12" />
  <sodipodi:namedview
     inkscape:current-layer="svg8"
     inkscape:window-maximized="1"
     inkscape:window-y="-9"
     inkscape:window-x="-9"
     inkscape:cy="44.911115"
     inkscape:cx="187.77659"
     inkscape:zoom="3.204244"
     showgrid="false"
     id="namedview10"
     inkscape:window-height="1001"
     inkscape:window-width="1920"
     inkscape:pageshadow="2"
     inkscape:pageopacity="0"
     guidetolerance="10"
     gridtolerance="10"
     objecttolerance="10"
     borderopacity="1"
     bordercolor="#666666"
     pagecolor="#ffffff" />
  <!---->
  <!---->
  <!---->
  <!---->
  <g
     fill="#ffffff"
     stroke="none"
     transform="matrix(1.1341374,0,0,1.1341374,-19.186203,-7.4728313)"
     id="95b0b88a-cabc-4e62-b9b4-df0f148b28f7"
     data-v-423bf9ae="">
    <path
       id="path5"
       d="m 33.641,39.205 a 18.734,18.734 0 0 0 11.154,4.756 V 72 C 40.091,62.103 30.001,55.242 18.334,55.242 c -0.783,0 -1.417,0.634 -1.417,1.417 0,16.147 13.137,29.284 29.284,29.284 a 0.066,0.066 0 0 0 0.02,0 c 0.044,0 0.086,-0.009 0.13,-0.013 0.023,10e-4 0.044,0.013 0.067,0.013 0.036,0 0.07,-0.018 0.107,-0.021 15.984,-0.19 28.93,-13.246 28.93,-29.275 0,-0.783 -0.634,-1.417 -1.417,-1.417 -11.621,0 -21.681,6.804 -26.409,16.637 V 43.961 C 57.341,43.22 65.021,35.097 65.021,25.199 V 8.05 C 65.022,8.007 65.015,7.966 65.012,7.923 A 1.416,1.416 0 0 0 64.941,7.56 C 64.926,7.516 64.914,7.473 64.895,7.43 A 1.44,1.44 0 0 0 64.644,7.052 C 64.631,7.038 64.627,7.02 64.614,7.006 64.603,6.995 64.588,6.992 64.577,6.981 A 1.412,1.412 0 0 0 64.158,6.703 C 64.142,6.696 64.126,6.694 64.11,6.688 A 1.418,1.418 0 0 0 63.617,6.592 L 63.609,6.591 63.603,6.59 c -0.414,0 -0.783,0.18 -1.042,0.463 l -0.133,0.133 a 1.403,1.403 0 0 0 -0.482,0.319 l -7.179,7.304 -7.804,-7.804 c -0.531,-0.531 -1.473,-0.532 -2.004,0 L 37.368,14.596 29.776,7.005 C 29.767,6.996 29.754,6.993 29.744,6.984 A 1.397,1.397 0 0 0 29.318,6.701 C 29.304,6.695 29.29,6.693 29.275,6.688 A 1.412,1.412 0 0 0 28.779,6.591 L 28.773,6.59 28.768,6.589 c -0.783,0 -1.417,0.635 -1.417,1.417 v 17.189 c 0,5.137 2.072,9.795 5.418,13.197 z m 12.546,1.994 a 15.908,15.908 0 0 1 -9.95,-3.492 l 18.399,-18.718 7.551,-7.551 v 13.761 c 0,8.822 -7.178,16 -16,16 z m -0.225,-31.186 6.819,6.818 -0.206,0.21 -6.381,6.381 -6.82,-6.82 z M 30.186,11.423 44.262,25.499 34.187,35.747 C 31.705,32.927 30.186,29.241 30.186,25.198 Z M 19.791,58.116 c 12.576,0.686 22.839,10.196 24.693,22.43 L 33.115,69.178 a 1.414,1.414 0 0 0 -2.004,0 1.416,1.416 0 0 0 0,2.004 L 42.815,82.886 C 30.297,81.279 20.488,70.894 19.791,58.116 Z M 50.15,82.798 61.519,71.428 a 1.416,1.416 0 0 0 0,-2.004 1.414,1.414 0 0 0 -2.004,0 L 47.811,81.129 C 49.418,68.611 59.803,58.801 72.581,58.104 71.895,70.68 62.385,80.944 50.15,82.798 Z" />
  </g>
  <!---->
</svg>
