<svg data-v-423bf9ae="" xmlns="http://www.w3.org/2000/svg" viewBox="0 0 377 91" class="iconLeft"><!----><!----><!----><g data-v-423bf9ae="" id="ade95d92-e92e-4f09-ba51-753eeabd2bc2" fill="white" transform="matrix(4.59880256652832,0,0,4.59880256652832,83.35096740722656,3.3592798709869385)"><path d="M10.22 7.81L10.22 7.81L10.22 7.81Q10.22 9.32 9.64 10.46L9.64 10.46L9.64 10.46Q9.06 11.59 7.98 12.20L7.98 12.20L7.98 12.20Q6.90 12.81 5.43 12.81L5.43 12.81L5.43 12.81Q3.95 12.81 2.87 12.21L2.87 12.21L2.87 12.21Q1.80 11.61 1.23 10.47L1.23 10.47L1.23 10.47Q0.66 9.33 0.66 7.81L0.66 7.81L0.66 7.81Q0.66 5.50 1.93 4.20L1.93 4.20L1.93 4.20Q3.19 2.90 5.45 2.90L5.45 2.90L5.45 2.90Q6.92 2.90 8.00 3.48L8.00 3.48L8.00 3.48Q9.08 4.07 9.65 5.18L9.65 5.18L9.65 5.18Q10.22 6.30 10.22 7.81ZM8.89 7.81L8.89 7.81L8.89 7.81Q8.89 6.02 7.99 4.99L7.99 4.99L7.99 4.99Q7.09 3.96 5.45 3.96L5.45 3.96L5.45 3.96Q3.79 3.96 2.89 4.98L2.89 4.98L2.89 4.98Q1.99 5.99 1.99 7.81L1.99 7.81L1.99 7.81Q1.99 9.63 2.90 10.69L2.90 10.69L2.90 10.69Q3.81 11.75 5.43 11.75L5.43 11.75L5.43 11.75Q7.10 11.75 7.99 10.72L7.99 10.72L7.99 10.72Q8.89 9.69 8.89 7.81ZM18.09 8.94L18.09 8.94L18.09 8.94Q18.09 12.81 15.37 12.81L15.37 12.81L15.37 12.81Q13.66 12.81 13.07 11.53L13.07 11.53L13.04 11.53L13.04 11.53Q13.06 11.58 13.06 12.69L13.06 12.69L13.06 15.58L11.83 15.58L11.83 6.79L11.83 6.79Q11.83 5.65 11.79 5.28L11.79 5.28L12.98 5.28L12.98 5.28Q12.99 5.30 13.00 5.47L13.00 5.47L13.00 5.47Q13.02 5.64 13.03 5.99L13.03 5.99L13.03 5.99Q13.05 6.34 13.05 6.47L13.05 6.47L13.08 6.47L13.08 6.47Q13.41 5.78 13.95 5.47L13.95 5.47L13.95 5.47Q14.49 5.15 15.37 5.15L15.37 5.15L15.37 5.15Q16.73 5.15 17.41 6.06L17.41 6.06L17.41 6.06Q18.09 6.98 18.09 8.94ZM16.80 8.97L16.80 8.97L16.80 8.97Q16.80 7.42 16.38 6.76L16.38 6.76L16.38 6.76Q15.96 6.10 15.05 6.10L15.05 6.10L15.05 6.10Q14.32 6.10 13.91 6.41L13.91 6.41L13.91 6.41Q13.49 6.71 13.28 7.37L13.28 7.37L13.28 7.37Q13.06 8.02 13.06 9.06L13.06 9.06L13.06 9.06Q13.06 10.52 13.53 11.21L13.53 11.21L13.53 11.21Q13.99 11.90 15.04 11.90L15.04 11.90L15.04 11.90Q15.96 11.90 16.38 11.23L16.38 11.23L16.38 11.23Q16.80 10.55 16.80 8.97ZM22.46 11.71L22.46 12.62L22.46 12.62Q21.85 12.78 21.22 12.78L21.22 12.78L21.22 12.78Q19.74 12.78 19.74 11.11L19.74 11.11L19.74 6.17L18.89 6.17L18.89 5.28L19.79 5.28L20.15 3.62L20.97 3.62L20.97 5.28L22.34 5.28L22.34 6.17L20.97 6.17L20.97 10.84L20.97 10.84Q20.97 11.38 21.15 11.59L21.15 11.59L21.15 11.59Q21.32 11.81 21.75 11.81L21.75 11.81L21.75 11.81Q22.00 11.81 22.46 11.71L22.46 11.71ZM24.73 3.71L23.50 3.71L23.50 2.53L24.73 2.53L24.73 3.71ZM24.73 12.67L23.50 12.67L23.50 5.28L24.73 5.28L24.73 12.67ZM32.87 8.97L32.87 8.97L32.87 8.97Q32.87 10.91 32.02 11.86L32.02 11.86L32.02 11.86Q31.17 12.81 29.54 12.81L29.54 12.81L29.54 12.81Q27.92 12.81 27.09 11.82L27.09 11.82L27.09 11.82Q26.26 10.83 26.26 8.97L26.26 8.97L26.26 8.97Q26.26 5.14 29.58 5.14L29.58 5.14L29.58 5.14Q31.27 5.14 32.07 6.07L32.07 6.07L32.07 6.07Q32.87 7.01 32.87 8.97ZM31.58 8.97L31.58 8.97L31.58 8.97Q31.58 7.44 31.13 6.74L31.13 6.74L31.13 6.74Q30.67 6.05 29.60 6.05L29.60 6.05L29.60 6.05Q28.52 6.05 28.04 6.76L28.04 6.76L28.04 6.76Q27.56 7.46 27.56 8.97L27.56 8.97L27.56 8.97Q27.56 10.43 28.03 11.17L28.03 11.17L28.03 11.17Q28.51 11.90 29.52 11.90L29.52 11.90L29.52 11.90Q30.63 11.90 31.11 11.19L31.11 11.19L31.11 11.19Q31.58 10.48 31.58 8.97ZM40.34 12.67L39.10 12.67L39.10 7.98L39.10 7.98Q39.10 7.25 38.96 6.85L38.96 6.85L38.96 6.85Q38.81 6.45 38.50 6.27L38.50 6.27L38.50 6.27Q38.19 6.09 37.58 6.09L37.58 6.09L37.58 6.09Q36.69 6.09 36.18 6.70L36.18 6.70L36.18 6.70Q35.66 7.31 35.66 8.39L35.66 8.39L35.66 12.67L34.43 12.67L34.43 6.86L34.43 6.86Q34.43 5.56 34.39 5.28L34.39 5.28L35.55 5.28L35.55 5.28Q35.56 5.31 35.57 5.46L35.57 5.46L35.57 5.46Q35.57 5.61 35.58 5.81L35.58 5.81L35.58 5.81Q35.59 6.00 35.61 6.54L35.61 6.54L35.63 6.54L35.63 6.54Q36.05 5.78 36.61 5.46L36.61 5.46L36.61 5.46Q37.17 5.14 37.99 5.14L37.99 5.14L37.99 5.14Q39.21 5.14 39.77 5.75L39.77 5.75L39.77 5.75Q40.34 6.35 40.34 7.75L40.34 7.75L40.34 12.67ZM50.56 12.67L49.23 12.67L48.13 9.86L43.74 9.86L42.63 12.67L41.28 12.67L45.21 3.04L46.69 3.04L50.56 12.67ZM46.12 4.59L45.93 4.03L45.87 4.22L45.87 4.22Q45.70 4.79 45.36 5.67L45.36 5.67L44.13 8.84L47.74 8.84L46.50 5.66L46.50 5.66Q46.31 5.19 46.12 4.59L46.12 4.59ZM52.76 12.67L51.53 12.67L51.53 2.53L52.76 2.53L52.76 12.67ZM55.87 12.67L54.64 12.67L54.64 2.53L55.87 2.53L55.87 12.67ZM58.11 15.58L58.11 15.58L58.11 15.58Q57.61 15.58 57.26 15.50L57.26 15.50L57.26 14.58L57.26 14.58Q57.52 14.62 57.84 14.62L57.84 14.62L57.84 14.62Q58.99 14.62 59.66 12.93L59.66 12.93L59.77 12.64L56.84 5.28L58.15 5.28L59.71 9.37L59.71 9.37Q59.75 9.46 59.79 9.59L59.79 9.59L59.79 9.59Q59.84 9.73 60.10 10.49L60.10 10.49L60.10 10.49Q60.36 11.25 60.38 11.33L60.38 11.33L60.86 9.99L62.48 5.28L63.78 5.28L60.94 12.67L60.94 12.67Q60.48 13.86 60.08 14.43L60.08 14.43L60.08 14.43Q59.68 15.01 59.20 15.30L59.20 15.30L59.20 15.30Q58.72 15.58 58.11 15.58Z"></path></g><!----><g data-v-423bf9ae="" id="95b0b88a-cabc-4e62-b9b4-df0f148b28f7" transform="matrix(1.1341373920440674,0,0,1.1341373920440674,-18.462787628173828,-6.883946418762207)" stroke="none" fill="white"><path d="M33.641 39.205a18.734 18.734 0 0 0 11.154 4.756V72c-4.704-9.897-14.794-16.758-26.461-16.758-.783 0-1.417.634-1.417 1.417 0 16.147 13.137 29.284 29.284 29.284a.066.066 0 0 0 .02 0c.044 0 .086-.009.13-.013.023.001.044.013.067.013.036 0 .07-.018.107-.021 15.984-.19 28.93-13.246 28.93-29.275 0-.783-.634-1.417-1.417-1.417-11.621 0-21.681 6.804-26.409 16.637V43.961c9.712-.741 17.392-8.864 17.392-18.762V8.05c.001-.043-.006-.084-.009-.127a1.416 1.416 0 0 0-.071-.363c-.015-.044-.027-.087-.046-.13a1.44 1.44 0 0 0-.251-.378c-.013-.014-.017-.032-.03-.046-.011-.011-.026-.014-.037-.025a1.412 1.412 0 0 0-.419-.278c-.016-.007-.032-.009-.048-.015a1.418 1.418 0 0 0-.493-.096l-.008-.001-.006-.001c-.414 0-.783.18-1.042.463l-.133.133a1.403 1.403 0 0 0-.482.319l-7.179 7.304-7.804-7.804c-.531-.531-1.473-.532-2.004 0l-7.591 7.591-7.592-7.591c-.009-.009-.022-.012-.032-.021a1.397 1.397 0 0 0-.426-.283c-.014-.006-.028-.008-.043-.013a1.412 1.412 0 0 0-.496-.097l-.006-.001-.005-.001c-.783 0-1.417.635-1.417 1.417v17.189c0 5.137 2.072 9.795 5.418 13.197l.872.813zm12.546 1.994a15.908 15.908 0 0 1-9.95-3.492l18.399-18.718 7.551-7.551v13.761c0 8.822-7.178 16-16 16zm-.225-31.186l6.819 6.818-.206.21-6.381 6.381-6.82-6.82 6.588-6.589zm-15.776 1.41l14.076 14.076-10.075 10.248c-2.482-2.82-4.001-6.506-4.001-10.549V11.423zM19.791 58.116c12.576.686 22.839 10.196 24.693 22.43L33.115 69.178a1.414 1.414 0 0 0-2.004 0 1.416 1.416 0 0 0 0 2.004l11.704 11.704c-12.518-1.607-22.327-11.992-23.024-24.77zM50.15 82.798l11.369-11.37a1.416 1.416 0 0 0 0-2.004 1.414 1.414 0 0 0-2.004 0L47.811 81.129c1.607-12.518 11.992-22.328 24.77-23.025-.686 12.576-10.196 22.84-22.431 24.694z"></path></g><!----></svg>